# xmcd CD database file
#
# Track frame offsets:
#	150
#	29027
#	55041
#	78764
#	114508
#	128797
#	159922
#	185674
#	212528
#	251949
#	286714
#
# Disc length: 4311 seconds
#
# Revision: 0
# Processed by: cddbd v1.4PL0 Copyright (c) Steve Scherf et al.
# Submitted via: CDex 1.50beta9
#
DISCID=9210d50b
DTITLE=Ganga Giri - Tribe Vibe
DYEAR=2003
DGENRE=Trance/Dance
TTITLE0=Nungabunda
TTITLE1=Carawonga
TTITLE2=In the Jungle
TTITLE3=The Crow
TTITLE4=Big Halat
TTITLE5=Afrodisiac
TTITLE6=Bushtucker Man
TTITLE7=Spirit Remix
TTITLE8=Rainbow River
TTITLE9=Goodbye Song
TTITLE10=Ganga Giri Video
EXTD=YEAR: 2003
EXTT0=
EXTT1=
EXTT2=
EXTT3=
EXTT4=
EXTT5=
EXTT6=
EXTT7=
EXTT8=
EXTT9=
EXTT10=
PLAYORDER=
